<svg width="96" height="90" viewBox="0 0 96 90" fill="none" xmlns="http://www.w3.org/2000/svg">
<path d="M68.4061 71.0327C72.4025 71.0327 75.6423 67.8482 75.6423 63.9199C75.6423 59.9917 72.4025 56.8072 68.4061 56.8072C64.4097 56.8072 61.1699 59.9917 61.1699 63.9199C61.1699 67.8482 64.4097 71.0327 68.4061 71.0327Z" fill="#718E8F"/>
<path d="M48.0482 71.0327C52.0446 71.0327 55.2844 67.8482 55.2844 63.9199C55.2844 59.9917 52.0446 56.8072 48.0482 56.8072C44.0518 56.8072 40.812 59.9917 40.812 63.9199C40.812 67.8482 44.0518 71.0327 48.0482 71.0327Z" fill="#718E8F"/>
<path d="M48.0482 52.1602C52.0446 52.1602 55.2844 48.9757 55.2844 45.0474C55.2844 41.1192 52.0446 37.9347 48.0482 37.9347C44.0518 37.9347 40.812 41.1192 40.812 45.0474C40.812 48.9757 44.0518 52.1602 48.0482 52.1602Z" fill="#3A596A"/>
<path d="M7.23618 52.1602C11.2326 52.1602 14.4724 48.9757 14.4724 45.0474C14.4724 41.1192 11.2326 37.9347 7.23618 37.9347C3.23975 37.9347 0 41.1192 0 45.0474C0 48.9757 3.23975 52.1602 7.23618 52.1602Z" fill="#3A596A"/>
<path d="M27.5941 52.1602C31.5905 52.1602 34.8303 48.9757 34.8303 45.0474C34.8303 41.1192 31.5905 37.9347 27.5941 37.9347C23.5977 37.9347 20.3579 41.1192 20.3579 45.0474C20.3579 48.9757 23.5977 52.1602 27.5941 52.1602Z" fill="#3A596A"/>
<path d="M27.5941 14.2255C31.5905 14.2255 34.8303 11.041 34.8303 7.11275C34.8303 3.18449 31.5905 0 27.5941 0C23.5977 0 20.3579 3.18449 20.3579 7.11275C20.3579 11.041 23.5977 14.2255 27.5941 14.2255Z" fill="#F76A66"/>
<path d="M48.0482 14.2255C52.0446 14.2255 55.2844 11.041 55.2844 7.11275C55.2844 3.18449 52.0446 0 48.0482 0C44.0518 0 40.812 3.18449 40.812 7.11275C40.812 11.041 44.0518 14.2255 48.0482 14.2255Z" fill="#F76A66"/>
<path d="M7.23618 33.1928C11.2326 33.1928 14.4724 30.0084 14.4724 26.0801C14.4724 22.1518 11.2326 18.9673 7.23618 18.9673C3.23975 18.9673 0 22.1518 0 26.0801C0 30.0084 3.23975 33.1928 7.23618 33.1928Z" fill="#F76A66"/>
<path d="M27.5941 33.1928C31.5905 33.1928 34.8303 30.0084 34.8303 26.0801C34.8303 22.1518 31.5905 18.9673 27.5941 18.9673C23.5977 18.9673 20.3579 22.1518 20.3579 26.0801C20.3579 30.0084 23.5977 33.1928 27.5941 33.1928Z" fill="#F76A66"/>
<path d="M48.0482 33.1928C52.0446 33.1928 55.2844 30.0084 55.2844 26.0801C55.2844 22.1518 52.0446 18.9673 48.0482 18.9673C44.0518 18.9673 40.812 22.1518 40.812 26.0801C40.812 30.0084 44.0518 33.1928 48.0482 33.1928Z" fill="#F76A66"/>
<path d="M7.23618 14.2255C11.2326 14.2255 14.4724 11.041 14.4724 7.11275C14.4724 3.18449 11.2326 0 7.23618 0C3.23975 0 0 3.18449 0 7.11275C0 11.041 3.23975 14.2255 7.23618 14.2255Z" fill="#F76A66"/>
<path d="M48.0482 90C52.0446 90 55.2844 86.8156 55.2844 82.8873C55.2844 78.959 52.0446 75.7745 48.0482 75.7745C44.0518 75.7745 40.812 78.959 40.812 82.8873C40.812 86.8156 44.0518 90 48.0482 90Z" fill="#B1CACA"/>
<path d="M68.4061 90C72.4025 90 75.6423 86.8156 75.6423 82.8873C75.6423 78.959 72.4025 75.7745 68.4061 75.7745C64.4097 75.7745 61.1699 78.959 61.1699 82.8873C61.1699 86.8156 64.4097 90 68.4061 90Z" fill="#B1CACA"/>
<path d="M88.764 71.0327C92.7604 71.0327 96.0002 67.8482 96.0002 63.9199C96.0002 59.9917 92.7604 56.8072 88.764 56.8072C84.7676 56.8072 81.5278 59.9917 81.5278 63.9199C81.5278 67.8482 84.7676 71.0327 88.764 71.0327Z" fill="#718E8F"/>
<path d="M88.764 52.1602C92.7604 52.1602 96.0002 48.9757 96.0002 45.0474C96.0002 41.1192 92.7604 37.9347 88.764 37.9347C84.7676 37.9347 81.5278 41.1192 81.5278 45.0474C81.5278 48.9757 84.7676 52.1602 88.764 52.1602Z" fill="#3A596A"/>
<path d="M68.4061 52.1602C72.4025 52.1602 75.6423 48.9757 75.6423 45.0474C75.6423 41.1192 72.4025 37.9347 68.4061 37.9347C64.4097 37.9347 61.1699 41.1192 61.1699 45.0474C61.1699 48.9757 64.4097 52.1602 68.4061 52.1602Z" fill="#3A596A"/>
<path d="M88.764 90C92.7604 90 96.0002 86.8156 96.0002 82.8873C96.0002 78.959 92.7604 75.7745 88.764 75.7745C84.7676 75.7745 81.5278 78.959 81.5278 82.8873C81.5278 86.8156 84.7676 90 88.764 90Z" fill="#B1CACA"/>
</svg>
