<svg width="95" height="90" viewBox="0 0 95 90" fill="none" xmlns="http://www.w3.org/2000/svg">
<path d="M7.1608 90C11.1156 90 14.3216 86.8155 14.3216 82.8872C14.3216 78.959 11.1156 75.7745 7.1608 75.7745C3.206 75.7745 0 78.959 0 82.8872C0 86.8155 3.206 90 7.1608 90Z" fill="#B1CACA"/>
<path d="M27.3068 71.0326C31.2616 71.0326 34.4676 67.8482 34.4676 63.9199C34.4676 59.9916 31.2616 56.8071 27.3068 56.8071C23.352 56.8071 20.146 59.9916 20.146 63.9199C20.146 67.8482 23.352 71.0326 27.3068 71.0326Z" fill="#718E8F"/>
<path d="M67.6935 71.0326C71.6483 71.0326 74.8543 67.8482 74.8543 63.9199C74.8543 59.9916 71.6483 56.8071 67.6935 56.8071C63.7387 56.8071 60.5327 59.9916 60.5327 63.9199C60.5327 67.8482 63.7387 71.0326 67.6935 71.0326Z" fill="#718E8F"/>
<path d="M27.3068 52.1602C31.2616 52.1602 34.4676 48.9757 34.4676 45.0474C34.4676 41.1192 31.2616 37.9347 27.3068 37.9347C23.352 37.9347 20.146 41.1192 20.146 45.0474C20.146 48.9757 23.352 52.1602 27.3068 52.1602Z" fill="#3A596A"/>
<path d="M47.5475 52.1602C51.5023 52.1602 54.7083 48.9757 54.7083 45.0474C54.7083 41.1192 51.5023 37.9347 47.5475 37.9347C43.5927 37.9347 40.3867 41.1192 40.3867 45.0474C40.3867 48.9757 43.5927 52.1602 47.5475 52.1602Z" fill="#3A596A"/>
<path d="M7.1608 52.1602C11.1156 52.1602 14.3216 48.9757 14.3216 45.0474C14.3216 41.1192 11.1156 37.9347 7.1608 37.9347C3.206 37.9347 0 41.1192 0 45.0474C0 48.9757 3.206 52.1602 7.1608 52.1602Z" fill="#3A596A"/>
<path d="M47.5475 14.2255C51.5023 14.2255 54.7083 11.041 54.7083 7.11275C54.7083 3.18449 51.5023 0 47.5475 0C43.5927 0 40.3867 3.18449 40.3867 7.11275C40.3867 11.041 43.5927 14.2255 47.5475 14.2255Z" fill="#F76A66"/>
<path d="M47.5475 33.1928C51.5023 33.1928 54.7083 30.0084 54.7083 26.0801C54.7083 22.1518 51.5023 18.9673 47.5475 18.9673C43.5927 18.9673 40.3867 22.1518 40.3867 26.0801C40.3867 30.0084 43.5927 33.1928 47.5475 33.1928Z" fill="#F76A66"/>
<path d="M87.839 14.2255C91.7938 14.2255 94.9998 11.041 94.9998 7.11275C94.9998 3.18449 91.7938 0 87.839 0C83.8842 0 80.6782 3.18449 80.6782 7.11275C80.6782 11.041 83.8842 14.2255 87.839 14.2255Z" fill="#F76A66"/>
<path d="M27.3068 33.1928C31.2616 33.1928 34.4676 30.0084 34.4676 26.0801C34.4676 22.1518 31.2616 18.9673 27.3068 18.9673C23.352 18.9673 20.146 22.1518 20.146 26.0801C20.146 30.0084 23.352 33.1928 27.3068 33.1928Z" fill="#F76A66"/>
<path d="M67.6935 33.1928C71.6483 33.1928 74.8543 30.0084 74.8543 26.0801C74.8543 22.1518 71.6483 18.9673 67.6935 18.9673C63.7387 18.9673 60.5327 22.1518 60.5327 26.0801C60.5327 30.0084 63.7387 33.1928 67.6935 33.1928Z" fill="#F76A66"/>
<path d="M7.1608 14.2255C11.1156 14.2255 14.3216 11.041 14.3216 7.11275C14.3216 3.18449 11.1156 0 7.1608 0C3.206 0 0 3.18449 0 7.11275C0 11.041 3.206 14.2255 7.1608 14.2255Z" fill="#F76A66"/>
<path d="M47.5475 90C51.5023 90 54.7083 86.8155 54.7083 82.8872C54.7083 78.959 51.5023 75.7745 47.5475 75.7745C43.5927 75.7745 40.3867 78.959 40.3867 82.8872C40.3867 86.8155 43.5927 90 47.5475 90Z" fill="#B1CACA"/>
<path d="M47.5475 71.0326C51.5023 71.0326 54.7083 67.8482 54.7083 63.9199C54.7083 59.9916 51.5023 56.8071 47.5475 56.8071C43.5927 56.8071 40.3867 59.9916 40.3867 63.9199C40.3867 67.8482 43.5927 71.0326 47.5475 71.0326Z" fill="#718E8F"/>
<path d="M67.6935 52.1602C71.6483 52.1602 74.8543 48.9757 74.8543 45.0474C74.8543 41.1192 71.6483 37.9347 67.6935 37.9347C63.7387 37.9347 60.5327 41.1192 60.5327 45.0474C60.5327 48.9757 63.7387 52.1602 67.6935 52.1602Z" fill="#3A596A"/>
<path d="M87.839 52.1602C91.7938 52.1602 94.9998 48.9757 94.9998 45.0474C94.9998 41.1192 91.7938 37.9347 87.839 37.9347C83.8842 37.9347 80.6782 41.1192 80.6782 45.0474C80.6782 48.9757 83.8842 52.1602 87.839 52.1602Z" fill="#3A596A"/>
<path d="M87.839 90C91.7938 90 94.9998 86.8155 94.9998 82.8872C94.9998 78.959 91.7938 75.7745 87.839 75.7745C83.8842 75.7745 80.6782 78.959 80.6782 82.8872C80.6782 86.8155 83.8842 90 87.839 90Z" fill="#B1CACA"/>
</svg>
