<svg width="94" height="90" viewBox="0 0 94 90" fill="none" xmlns="http://www.w3.org/2000/svg">
<path d="M7.12436 90.0695C11.059 90.0695 14.2487 86.8671 14.2487 82.9167C14.2487 78.9663 11.059 75.7639 7.12436 75.7639C3.18968 75.7639 0 78.9663 0 82.9167C0 86.8671 3.18968 90.0695 7.12436 90.0695Z" fill="#B1CACA"/>
<path d="M7.12436 71.1111C11.059 71.1111 14.2487 67.9087 14.2487 63.9583C14.2487 60.0079 11.059 56.8055 7.12436 56.8055C3.18968 56.8055 0 60.0079 0 63.9583C0 67.9087 3.18968 71.1111 7.12436 71.1111Z" fill="#718E8F"/>
<path d="M27.0448 90.0695C30.9794 90.0695 34.1691 86.8671 34.1691 82.9167C34.1691 78.9663 30.9794 75.7639 27.0448 75.7639C23.1101 75.7639 19.9204 78.9663 19.9204 82.9167C19.9204 86.8671 23.1101 90.0695 27.0448 90.0695Z" fill="#B1CACA"/>
<path d="M27.0448 71.1111C30.9794 71.1111 34.1691 67.9087 34.1691 63.9583C34.1691 60.0079 30.9794 56.8055 27.0448 56.8055C23.1101 56.8055 19.9204 60.0079 19.9204 63.9583C19.9204 67.9087 23.1101 71.1111 27.0448 71.1111Z" fill="#718E8F"/>
<path d="M27.0448 52.1528C30.9794 52.1528 34.1691 48.9504 34.1691 45C34.1691 41.0496 30.9794 37.8472 27.0448 37.8472C23.1101 37.8472 19.9204 41.0496 19.9204 45C19.9204 48.9504 23.1101 52.1528 27.0448 52.1528Z" fill="#3A596A"/>
<path d="M27.0448 33.1945C30.9794 33.1945 34.1691 29.9921 34.1691 26.0417C34.1691 22.0913 30.9794 18.8889 27.0448 18.8889C23.1101 18.8889 19.9204 22.0913 19.9204 26.0417C19.9204 29.9921 23.1101 33.1945 27.0448 33.1945Z" fill="#F76A66"/>
<path d="M27.0448 14.3056C30.9794 14.3056 34.1691 11.1031 34.1691 7.15278C34.1691 3.20241 30.9794 0 27.0448 0C23.1101 0 19.9204 3.20241 19.9204 7.15278C19.9204 11.1031 23.1101 14.3056 27.0448 14.3056Z" fill="#F76A66"/>
<path d="M47.0345 33.1945C50.9692 33.1945 54.1589 29.9921 54.1589 26.0417C54.1589 22.0913 50.9692 18.8889 47.0345 18.8889C43.0998 18.8889 39.9102 22.0913 39.9102 26.0417C39.9102 29.9921 43.0998 33.1945 47.0345 33.1945Z" fill="#F76A66"/>
<path d="M47.0345 14.3056C50.9692 14.3056 54.1589 11.1031 54.1589 7.15278C54.1589 3.20241 50.9692 0 47.0345 0C43.0998 0 39.9102 3.20241 39.9102 7.15278C39.9102 11.1031 43.0998 14.3056 47.0345 14.3056Z" fill="#F76A66"/>
<path d="M86.9447 33.1945C90.8793 33.1945 94.069 29.9921 94.069 26.0417C94.069 22.0913 90.8793 18.8889 86.9447 18.8889C83.01 18.8889 79.8203 22.0913 79.8203 26.0417C79.8203 29.9921 83.01 33.1945 86.9447 33.1945Z" fill="#F76A66"/>
<path d="M86.9447 14.3056C90.8793 14.3056 94.069 11.1031 94.069 7.15278C94.069 3.20241 90.8793 0 86.9447 0C83.01 0 79.8203 3.20241 79.8203 7.15278C79.8203 11.1031 83.01 14.3056 86.9447 14.3056Z" fill="#F76A66"/>
<path d="M7.12436 33.1945C11.059 33.1945 14.2487 29.9921 14.2487 26.0417C14.2487 22.0913 11.059 18.8889 7.12436 18.8889C3.18968 18.8889 0 22.0913 0 26.0417C0 29.9921 3.18968 33.1945 7.12436 33.1945Z" fill="#F76A66"/>
<path d="M7.12436 14.3056C11.059 14.3056 14.2487 11.1031 14.2487 7.15278C14.2487 3.20241 11.059 0 7.12436 0C3.18968 0 0 3.20241 0 7.15278C0 11.1031 3.18968 14.3056 7.12436 14.3056Z" fill="#F76A66"/>
<path d="M66.9549 14.3056C70.8896 14.3056 74.0793 11.1031 74.0793 7.15278C74.0793 3.20241 70.8896 0 66.9549 0C63.0203 0 59.8306 3.20241 59.8306 7.15278C59.8306 11.1031 63.0203 14.3056 66.9549 14.3056Z" fill="#F76A66"/>
<path d="M47.0345 90.0695C50.9692 90.0695 54.1589 86.8671 54.1589 82.9167C54.1589 78.9663 50.9692 75.7639 47.0345 75.7639C43.0998 75.7639 39.9102 78.9663 39.9102 82.9167C39.9102 86.8671 43.0998 90.0695 47.0345 90.0695Z" fill="#B1CACA"/>
<path d="M47.0345 71.1111C50.9692 71.1111 54.1589 67.9087 54.1589 63.9583C54.1589 60.0079 50.9692 56.8055 47.0345 56.8055C43.0998 56.8055 39.9102 60.0079 39.9102 63.9583C39.9102 67.9087 43.0998 71.1111 47.0345 71.1111Z" fill="#718E8F"/>
<path d="M47.0345 52.1528C50.9692 52.1528 54.1589 48.9504 54.1589 45C54.1589 41.0496 50.9692 37.8472 47.0345 37.8472C43.0998 37.8472 39.9102 41.0496 39.9102 45C39.9102 48.9504 43.0998 52.1528 47.0345 52.1528Z" fill="#3A596A"/>
<path d="M66.9549 90.0695C70.8896 90.0695 74.0793 86.8671 74.0793 82.9167C74.0793 78.9663 70.8896 75.7639 66.9549 75.7639C63.0203 75.7639 59.8306 78.9663 59.8306 82.9167C59.8306 86.8671 63.0203 90.0695 66.9549 90.0695Z" fill="#B1CACA"/>
<path d="M66.9549 71.1111C70.8896 71.1111 74.0793 67.9087 74.0793 63.9583C74.0793 60.0079 70.8896 56.8055 66.9549 56.8055C63.0203 56.8055 59.8306 60.0079 59.8306 63.9583C59.8306 67.9087 63.0203 71.1111 66.9549 71.1111Z" fill="#718E8F"/>
<path d="M86.9447 71.1111C90.8793 71.1111 94.069 67.9087 94.069 63.9583C94.069 60.0079 90.8793 56.8055 86.9447 56.8055C83.01 56.8055 79.8203 60.0079 79.8203 63.9583C79.8203 67.9087 83.01 71.1111 86.9447 71.1111Z" fill="#718E8F"/>
<path d="M66.9549 52.1528C70.8896 52.1528 74.0793 48.9504 74.0793 45C74.0793 41.0496 70.8896 37.8472 66.9549 37.8472C63.0203 37.8472 59.8306 41.0496 59.8306 45C59.8306 48.9504 63.0203 52.1528 66.9549 52.1528Z" fill="#3A596A"/>
<path d="M66.9549 33.1945C70.8896 33.1945 74.0793 29.9921 74.0793 26.0417C74.0793 22.0913 70.8896 18.8889 66.9549 18.8889C63.0203 18.8889 59.8306 22.0913 59.8306 26.0417C59.8306 29.9921 63.0203 33.1945 66.9549 33.1945Z" fill="#F76A66"/>
<path d="M86.9447 90.0695C90.8793 90.0695 94.069 86.8671 94.069 82.9167C94.069 78.9663 90.8793 75.7639 86.9447 75.7639C83.01 75.7639 79.8203 78.9663 79.8203 82.9167C79.8203 86.8671 83.01 90.0695 86.9447 90.0695Z" fill="#B1CACA"/>
</svg>
